<svg width="36" height="36" viewBox="0 0 36 36" fill="none" xmlns="http://www.w3.org/2000/svg">
<path d="M34.6669 26.2V31.2C34.6688 31.6642 34.5737 32.1236 34.3877 32.5489C34.2018 32.9742 33.929 33.356 33.587 33.6698C33.245 33.9836 32.8412 34.2225 32.4015 34.3712C31.9618 34.5199 31.4958 34.5751 31.0335 34.5334C25.9049 33.9761 20.9785 32.2236 16.6502 29.4167C12.6233 26.8578 9.20911 23.4436 6.65021 19.4167C3.83351 15.0687 2.08062 10.1183 1.53355 4.96669C1.4919 4.5058 1.54667 4.04129 1.69438 3.60273C1.84209 3.16417 2.0795 2.76117 2.39149 2.41939C2.70348 2.07761 3.08322 1.80453 3.50653 1.61756C3.92984 1.43058 4.38745 1.33379 4.85021 1.33335H9.85021C10.6591 1.32539 11.4432 1.61182 12.0565 2.13924C12.6698 2.66666 13.0703 3.3991 13.1835 4.20002C13.3946 5.80013 13.786 7.37123 14.3502 8.88335C14.5745 9.47989 14.623 10.1282 14.4901 10.7515C14.3571 11.3748 14.0483 11.9469 13.6002 12.4L11.4835 14.5167C13.8561 18.6893 17.311 22.1441 21.4835 24.5167L23.6002 22.4C24.0534 21.9519 24.6255 21.6431 25.2487 21.5102C25.872 21.3772 26.5203 21.4258 27.1169 21.65C28.629 22.2143 30.2001 22.6056 31.8002 22.8167C32.6098 22.9309 33.3492 23.3387 33.8778 23.9625C34.4063 24.5863 34.6872 25.3826 34.6669 26.2Z" stroke="white" stroke-width="2" stroke-linecap="round" stroke-linejoin="round"/>
</svg>
